<svg width="390" height="1892" viewBox="0 0 390 1892" fill="none" xmlns="http://www.w3.org/2000/svg">
<path fill-rule="evenodd" clip-rule="evenodd" d="M390 11.5125C387.003 11.9007 383.893 12.158 380.621 12.2253C366.92 12.5089 355.585 9.52155 344.092 6.49263C334.307 3.91373 324.407 1.30472 312.836 0.658898C295.994 -0.281614 281.287 3.06366 266.433 6.44233C252.882 9.52455 239.209 12.6346 223.682 12.5439C208.492 12.4552 195.194 9.32244 181.983 6.21022C167.767 2.8612 153.652 -0.463992 137.39 0.0534954C125.139 0.443577 114.803 2.97847 104.473 5.512C94.0519 8.06785 83.6364 10.6223 71.2661 10.972C57.4033 11.3638 44.2096 8.86075 32.3308 6.24442C31.7055 6.10667 31.0767 5.96771 30.4445 5.82802L30.444 5.8279C20.9706 3.73445 10.7422 1.47415 0.000132379 0.586913V36H6.49384e-06V1856L0 1880.49C2.99718 1880.1 6.10692 1879.84 9.37913 1879.77C23.0803 1879.49 34.4154 1882.48 45.9082 1885.51C55.6935 1888.09 65.593 1890.7 77.1644 1891.34C94.006 1892.28 108.713 1888.94 123.567 1885.56C137.118 1882.48 150.791 1879.37 166.318 1879.46C181.508 1879.54 194.806 1882.68 208.017 1885.79C222.233 1889.14 236.348 1892.46 252.61 1891.95C264.861 1891.56 275.197 1889.02 285.527 1886.49C295.948 1883.93 306.364 1881.38 318.734 1881.03C332.597 1880.64 345.79 1883.14 357.669 1885.76C358.296 1885.89 358.925 1886.03 359.559 1886.17C369.031 1888.27 379.259 1890.53 390 1891.41L390 1856V36V11.5125Z" fill="url(#paint0_linear_71_473)"/>
<defs>
<linearGradient id="paint0_linear_71_473" x1="195" y1="0" x2="195" y2="362.781" gradientUnits="userSpaceOnUse">
<stop stop-color="#EBBC6C"/>
<stop offset="1" stop-color="#F0D068"/>
</linearGradient>
</defs>
</svg>
