<svg width="60" height="99" viewBox="0 0 60 99" fill="none" xmlns="http://www.w3.org/2000/svg">
<g clip-path="url(#clip0_620_884)">
<path d="M3 20.5L1 23V31.5L3.5 33.5L6 35L10.5 95L16.5 97L25.5 98H34.5L43.5 97L48.5 95.5L50 94.5L54 34.5L57.5 33L59 31.5V23L58 22L54 19.5L40.5 17.5H37L37.5 4L38 2L35.5 0.5H32L30 1L29 2.5L28 17L16 18L8.5 19L3 20.5Z" fill="white" stroke="black"/>
<path d="M52.6721 53.6565C52.6721 56.259 42.5171 58.374 29.9996 58.374C17.4821 58.374 7.32715 56.259 7.32715 53.6565C7.32715 51.054 17.4746 48.939 29.9996 48.939C42.5246 48.939 52.6721 51.054 52.6721 53.6565Z" fill="#F0D068"/>
<g style="mix-blend-mode:multiply" opacity="0.3">
<path d="M30.0005 58.3739C42.5255 58.3739 52.673 56.2589 52.673 53.6564C52.673 51.8489 47.7905 50.2814 40.628 49.4939C41.1905 50.8364 40.8005 52.4564 39.8705 53.5739C38.933 54.6914 37.5305 55.3514 36.098 55.6364C32.2055 56.4089 28.3205 54.6614 24.4355 53.8589C19.373 52.8164 14.0105 53.4914 9.29297 55.5839C12.833 57.2264 20.768 58.3739 29.993 58.3739H30.0005Z" fill="#ECB356"/>
</g>
<path d="M52.673 53.6562C52.673 56.2588 42.518 58.3738 30.0005 58.3738C17.483 58.3738 7.32801 56.2588 7.32801 53.6562H7.20801L10.073 94.0737C10.073 96.3612 18.9905 98.2212 29.993 98.2212C40.9955 98.2212 49.913 96.3687 49.913 94.0737L52.778 53.6562H52.658H52.673Z" fill="#ECB356"/>
<g style="mix-blend-mode:multiply" opacity="0.3">
<path d="M49.9202 94.0664L51.6227 70.0289C51.2852 70.7339 50.9102 71.4164 50.4377 72.0314C49.3877 73.4114 47.6552 74.4689 45.9602 74.1014C43.0127 73.4639 41.8277 69.0839 38.8127 68.9339C37.5227 68.8664 36.3152 69.6839 35.5652 70.7264C34.8152 71.7764 34.4327 73.0364 34.0652 74.2739C33.1652 77.3039 32.2577 80.3414 31.3577 83.3714C30.6752 85.6589 29.9702 88.0064 28.5452 89.9264C27.1277 91.8464 24.8252 93.2939 22.4477 93.0389C20.4827 92.8289 18.7802 91.4789 17.6852 89.8364C16.5902 88.1939 16.0202 86.2589 15.5177 84.3464C13.7252 77.5139 12.6452 70.5164 12.0677 63.4739C11.8727 61.0964 11.6702 58.5839 11.0927 56.2514C8.7152 55.5014 7.3202 54.6089 7.3202 53.6489H7.2002L10.0652 94.0664C10.0652 96.3539 18.9827 98.2139 29.9852 98.2139C40.9877 98.2139 49.9052 96.3614 49.9052 94.0664H49.9202Z" fill="#ECB356"/>
</g>
<g style="mix-blend-mode:multiply" opacity="0.3">
<path d="M52.3875 59.2964C48.8925 62.2364 45.99 65.7014 45.225 70.1039C44.79 72.6164 45.1125 75.1889 45.135 77.7389C45.1575 80.2889 44.82 82.9814 43.2675 85.0139C41.7225 87.0389 38.6475 88.0739 36.5175 86.6714C34.77 85.5164 33.9375 83.0189 31.8975 82.5614C30.3375 82.2089 28.8 83.2664 27.7575 84.4889C26.715 85.7039 25.905 87.1589 24.5925 88.0739C22.0875 89.8064 18.465 88.9439 16.2225 86.8889C13.98 84.8339 12.8025 81.8789 11.82 78.9989C10.9125 76.3589 10.0575 73.6364 8.45996 71.3714L10.0725 94.0739C10.0725 96.3614 18.99 98.2214 29.9925 98.2214C39.6675 98.2214 47.73 96.7889 49.5375 94.8839C49.6575 94.5914 49.785 94.2989 49.92 94.0139L52.38 59.3039L52.3875 59.2964Z" fill="#ECB356"/>
</g>
<path d="M33.9229 4.95888C33.7054 4.95888 33.4954 4.95888 33.2779 4.93638C30.7729 4.78638 28.2979 3.74388 28.3954 2.04138C28.5004 0.338881 31.0879 -0.396119 33.5929 -0.246119C36.0979 -0.0961188 38.5729 0.953881 38.4754 2.64888C38.3779 4.20888 36.2104 4.95138 33.9229 4.95138V4.95888ZM32.9329 1.23888C30.9754 1.23888 29.9179 1.87638 29.9029 2.13888C29.8879 2.41638 31.0504 3.30888 33.3754 3.45138C35.6929 3.59388 36.9679 2.85138 36.9829 2.57388C36.9979 2.28888 35.8279 1.40388 33.5104 1.26138C33.3079 1.24638 33.1204 1.24638 32.9329 1.24638V1.23888Z" fill="#1E1E1E"/>
<path d="M35.0628 37.3437C34.9878 37.3512 34.9203 37.3587 34.8453 37.3587L33.9078 52.6062C33.9078 52.6062 33.9078 52.6362 33.9078 52.6512C33.9078 52.6587 33.9078 52.6737 33.9078 52.6887C33.8778 52.7862 33.6528 53.0262 33.0678 53.2362C32.3403 53.4987 31.3353 53.6112 30.3003 53.5512C28.0278 53.4162 26.8653 52.5612 26.8278 52.2687C26.8278 52.2462 26.8278 52.2312 26.8353 52.2162C26.8353 52.1637 26.8353 52.1037 26.8353 52.0512L27.7203 37.5912C27.3528 37.6287 26.9853 37.6512 26.6103 37.6662C26.4678 37.6662 26.3328 37.6512 26.2128 37.6137L25.3278 52.0887C25.3278 52.0887 25.3278 52.1487 25.3278 52.1787C25.2528 53.8662 27.7203 54.9012 30.2103 55.0512C30.4278 55.0662 30.6453 55.0737 30.8628 55.0737C31.8678 55.0737 32.8128 54.9312 33.5778 54.6537C35.1003 54.1062 35.3778 53.2362 35.4078 52.7712C35.4078 52.7487 35.4078 52.7037 35.4078 52.6737L36.3678 37.0737C35.9628 37.1937 35.5278 37.2837 35.0628 37.3512V37.3437Z" fill="#1E1E1E"/>
<path d="M28.208 29.7163L29.903 2.13127C29.918 1.85377 31.1855 1.11127 33.5105 1.25377C35.8355 1.39627 36.998 2.28127 36.983 2.56627L35.3405 29.3263C35.8355 29.3113 36.338 29.3263 36.8405 29.3863L38.483 2.66377C38.588 0.961274 36.1055 -0.0812263 33.6005 -0.231226C31.0955 -0.381226 28.508 0.353774 28.403 2.05627L26.708 29.7238C27.2105 29.7238 27.713 29.7238 28.208 29.7238V29.7163Z" fill="#1E1E1E"/>
<path d="M17.94 96.9313L15.3975 36.6013C14.88 36.4438 14.37 36.2413 13.875 36.0088L16.4325 96.7588C16.935 96.8038 17.4375 96.8563 17.94 96.9313Z" fill="#1E1E1E"/>
<path d="M20.4527 97.4188L18.8027 37.2013C18.5477 37.1788 18.3002 37.1563 18.0527 37.1338L19.7027 97.2388C19.9577 97.2913 20.2052 97.3588 20.4602 97.4188H20.4527Z" fill="#1E1E1E"/>
<path d="M30.0001 37.9139C15.2551 37.9139 0.330078 35.5889 0.330078 31.1489L0.330078 23.1614C0.330078 22.7489 0.667578 22.4114 1.08008 22.4114C1.49258 22.4114 1.83008 22.7489 1.83008 23.1614C1.83008 25.0514 11.2426 28.4264 30.0001 28.4264C48.7576 28.4264 58.1701 25.0514 58.1701 23.1614C58.1701 22.7489 58.5076 22.4114 58.9201 22.4114C59.3326 22.4114 59.6701 22.7489 59.6701 23.1614V31.1489C59.6701 35.5889 44.7451 37.9139 30.0001 37.9139ZM1.83008 25.4489L1.83008 31.1489C1.83008 33.0389 11.2426 36.4139 30.0001 36.4139C48.7576 36.4139 58.1701 33.0389 58.1701 31.1489V25.4564C54.0301 28.4039 41.9551 29.9264 30.0001 29.9264C18.0451 29.9264 5.97008 28.3964 1.83008 25.4489Z" fill="#1E1E1E"/>
<path d="M30 98.9638C22.8525 98.9638 9.33005 97.9438 9.33005 94.0663L5.10005 34.5088C5.08505 34.2613 5.19005 34.0213 5.38505 33.8638C5.58005 33.7063 5.83505 33.6613 6.07505 33.7363C11.385 35.4088 20.325 36.4063 30 36.4063C39.675 36.4063 48.615 35.4088 53.925 33.7363C54.165 33.6613 54.42 33.7063 54.615 33.8638C54.81 34.0213 54.915 34.2613 54.9 34.5088L50.67 94.1263C50.67 97.9438 37.1475 98.9713 30 98.9713V98.9638ZM6.67505 35.4763L10.83 94.0138C10.83 95.2213 17.6025 97.4638 30.0075 97.4638C42.4125 97.4638 49.1775 95.2213 49.1775 94.0663L53.3325 35.4763C47.805 37.0063 39.2175 37.9063 30.0075 37.9063C20.7975 37.9063 12.2025 37.0063 6.68255 35.4763H6.67505Z" fill="#1E1E1E"/>
<path d="M37.2376 16.5838C37.2376 16.7263 37.2376 16.8688 37.1851 17.0263C37.1776 17.0488 37.1701 17.0713 37.1626 17.0938C37.1626 17.1388 37.1626 17.1838 37.1626 17.2288C37.0951 17.5813 36.9376 17.8288 36.6826 18.0463C51.0001 18.7213 58.1776 21.5113 58.1776 23.1613C58.1776 25.0513 48.7651 28.4263 30.0076 28.4263C11.2501 28.4263 1.83008 25.0513 1.83008 23.1613C1.83008 21.2713 10.6276 18.1213 28.1476 17.9038C28.3051 17.3788 28.5076 16.8838 28.7851 16.4038C14.4526 16.5238 0.330078 18.8338 0.330078 23.1613C0.330078 27.4888 15.2551 29.9263 30.0001 29.9263C44.7451 29.9263 59.6701 27.6013 59.6701 23.1613C59.6701 19.4488 49.2601 17.2213 37.2451 16.5838H37.2376Z" fill="#1E1E1E"/>
<path d="M32.4749 34.6889C24.4799 34.6889 14.1749 33.5564 0.914936 30.5264C0.509936 30.4364 0.262436 30.0314 0.352436 29.6264C0.442436 29.2214 0.847436 28.9664 1.25244 29.0639C51.3074 40.5089 58.1624 24.3239 58.2224 24.1589C58.3724 23.7764 58.7999 23.5814 59.1899 23.7239C59.5724 23.8664 59.7749 24.2939 59.6324 24.6839C59.4374 25.2239 55.5899 34.6964 32.4824 34.6964L32.4749 34.6889Z" fill="#1E1E1E"/>
</g>
<defs>
<clipPath id="clip0_620_884">
<rect width="60" height="99" fill="white"/>
</clipPath>
</defs>
</svg>
