<svg width="60" height="99" viewBox="0 0 60 99" fill="none" xmlns="http://www.w3.org/2000/svg">
<g clip-path="url(#clip0_131_1030)">
<path d="M52.6723 53.6562C52.6723 56.2587 42.5173 58.3737 29.9998 58.3737C17.4823 58.3737 7.32727 56.2587 7.32727 53.6562C7.32727 51.0537 17.4748 48.9387 29.9998 48.9387C42.5248 48.9387 52.6723 51.0537 52.6723 53.6562Z" fill="#F0D068"/>
<g style="mix-blend-mode:multiply" opacity="0.3">
<path d="M29.9998 58.3738C42.5248 58.3738 52.6723 56.2588 52.6723 53.6563C52.6723 51.8488 47.7898 50.2813 40.6273 49.4938C41.1898 50.8363 40.7998 52.4563 39.8698 53.5738C38.9323 54.6913 37.5298 55.3513 36.0973 55.6363C32.2048 56.4088 28.3198 54.6613 24.4348 53.8588C19.3723 52.8163 14.0098 53.4913 9.2923 55.5838C12.8323 57.2263 20.7673 58.3738 29.9923 58.3738H29.9998Z" fill="#ECB356"/>
</g>
<path d="M52.6723 53.6562C52.6723 56.2587 42.5173 58.3738 29.9998 58.3738C17.4823 58.3738 7.32728 56.2587 7.32728 53.6562H7.20728L10.0723 94.0737C10.0723 96.3612 18.9898 98.2212 29.9923 98.2212C40.9948 98.2212 49.9123 96.3687 49.9123 94.0737L52.7773 53.6562H52.6573H52.6723Z" fill="#ECB356"/>
<g style="mix-blend-mode:multiply" opacity="0.3">
<path d="M49.9198 94.0663L51.6223 70.0288C51.2848 70.7338 50.9098 71.4163 50.4373 72.0313C49.3873 73.4113 47.6548 74.4688 45.9598 74.1013C43.0123 73.4638 41.8273 69.0838 38.8123 68.9338C37.5223 68.8663 36.3148 69.6838 35.5648 70.7263C34.8148 71.7763 34.4323 73.0363 34.0648 74.2738C33.1648 77.3038 32.2573 80.3413 31.3573 83.3713C30.6748 85.6588 29.9698 88.0063 28.5448 89.9263C27.1273 91.8463 24.8248 93.2938 22.4473 93.0388C20.4823 92.8288 18.7798 91.4788 17.6848 89.8363C16.5898 88.1938 16.0198 86.2588 15.5173 84.3463C13.7248 77.5138 12.6448 70.5163 12.0673 63.4738C11.8723 61.0963 11.6698 58.5838 11.0923 56.2513C8.71477 55.5013 7.31977 54.6088 7.31977 53.6488H7.19977L10.0648 94.0663C10.0648 96.3538 18.9823 98.2138 29.9848 98.2138C40.9873 98.2138 49.9048 96.3613 49.9048 94.0663H49.9198Z" fill="#ECB356"/>
</g>
<g style="mix-blend-mode:multiply" opacity="0.3">
<path d="M52.3873 59.2963C48.8923 62.2363 45.9898 65.7013 45.2248 70.1038C44.7898 72.6163 45.1123 75.1888 45.1348 77.7388C45.1573 80.2888 44.8198 82.9813 43.2673 85.0138C41.7223 87.0388 38.6473 88.0738 36.5173 86.6713C34.7698 85.5163 33.9373 83.0188 31.8973 82.5613C30.3373 82.2088 28.7998 83.2663 27.7573 84.4888C26.7148 85.7038 25.9048 87.1588 24.5923 88.0738C22.0873 89.8063 18.4648 88.9438 16.2223 86.8888C13.9798 84.8338 12.8023 81.8788 11.8198 78.9988C10.9123 76.3588 10.0573 73.6363 8.45978 71.3713L10.0723 94.0738C10.0723 96.3613 18.9898 98.2213 29.9923 98.2213C39.6673 98.2213 47.7298 96.7888 49.5373 94.8838C49.6573 94.5913 49.7848 94.2988 49.9198 94.0138L52.3798 59.3038L52.3873 59.2963Z" fill="#ECB356"/>
</g>
<path d="M33.9223 4.95876C33.7048 4.95876 33.4948 4.95876 33.2773 4.93626C30.7723 4.78626 28.2973 3.74376 28.3948 2.04126C28.4998 0.338759 31.0873 -0.396241 33.5923 -0.246241C36.0973 -0.0962409 38.5723 0.953759 38.4748 2.64876C38.3773 4.20876 36.2098 4.95126 33.9223 4.95126V4.95876ZM32.9323 1.23876C30.9748 1.23876 29.9173 1.87626 29.9023 2.13876C29.8873 2.41626 31.0498 3.30876 33.3748 3.45126C35.6923 3.59376 36.9673 2.85126 36.9823 2.57376C36.9973 2.28876 35.8273 1.40376 33.5098 1.26126C33.3073 1.24626 33.1198 1.24626 32.9323 1.24626V1.23876Z" fill="#1E1E1E"/>
<path d="M35.0623 37.3437C34.9873 37.3512 34.9198 37.3587 34.8448 37.3587L33.9073 52.6062C33.9073 52.6062 33.9073 52.6362 33.9073 52.6512C33.9073 52.6587 33.9073 52.6737 33.9073 52.6887C33.8773 52.7862 33.6523 53.0262 33.0673 53.2362C32.3398 53.4987 31.3348 53.6112 30.2998 53.5512C28.0273 53.4162 26.8648 52.5612 26.8273 52.2687C26.8273 52.2462 26.8273 52.2312 26.8348 52.2162C26.8348 52.1637 26.8348 52.1037 26.8348 52.0512L27.7198 37.5912C27.3523 37.6287 26.9848 37.6512 26.6098 37.6662C26.4673 37.6662 26.3323 37.6512 26.2123 37.6137L25.3273 52.0887C25.3273 52.0887 25.3273 52.1487 25.3273 52.1787C25.2523 53.8662 27.7198 54.9012 30.2098 55.0512C30.4273 55.0662 30.6448 55.0737 30.8623 55.0737C31.8673 55.0737 32.8123 54.9312 33.5773 54.6537C35.0998 54.1062 35.3773 53.2362 35.4073 52.7712C35.4073 52.7487 35.4073 52.7037 35.4073 52.6737L36.3673 37.0737C35.9623 37.1937 35.5273 37.2837 35.0623 37.3512V37.3437Z" fill="#1E1E1E"/>
<path d="M28.2073 29.7163L29.9023 2.13127C29.9173 1.85377 31.1848 1.11127 33.5098 1.25377C35.8348 1.39627 36.9973 2.28127 36.9823 2.56627L35.3398 29.3263C35.8348 29.3113 36.3373 29.3263 36.8398 29.3863L38.4823 2.66377C38.5873 0.961274 36.1048 -0.0812263 33.5998 -0.231226C31.0948 -0.381226 28.5073 0.353774 28.4023 2.05627L26.7073 29.7238C27.2098 29.7238 27.7123 29.7238 28.2073 29.7238V29.7163Z" fill="#1E1E1E"/>
<path d="M17.9398 96.9313L15.3973 36.6013C14.8798 36.4438 14.3698 36.2413 13.8748 36.0088L16.4323 96.7588C16.9348 96.8038 17.4373 96.8563 17.9398 96.9313Z" fill="#1E1E1E"/>
<path d="M20.4522 97.4188L18.8022 37.2013C18.5472 37.1788 18.2997 37.1563 18.0522 37.1338L19.7022 97.2388C19.9572 97.2913 20.2047 97.3588 20.4597 97.4188H20.4522Z" fill="#1E1E1E"/>
<path d="M29.9998 37.9138C15.2548 37.9138 0.329773 35.5888 0.329773 31.1488L0.329773 23.1613C0.329773 22.7488 0.667273 22.4113 1.07977 22.4113C1.49227 22.4113 1.82977 22.7488 1.82977 23.1613C1.82977 25.0513 11.2423 28.4263 29.9998 28.4263C48.7573 28.4263 58.1698 25.0513 58.1698 23.1613C58.1698 22.7488 58.5073 22.4113 58.9198 22.4113C59.3323 22.4113 59.6698 22.7488 59.6698 23.1613V31.1488C59.6698 35.5888 44.7448 37.9138 29.9998 37.9138ZM1.82977 25.4488L1.82977 31.1488C1.82977 33.0388 11.2423 36.4138 29.9998 36.4138C48.7573 36.4138 58.1698 33.0388 58.1698 31.1488V25.4563C54.0298 28.4038 41.9548 29.9263 29.9998 29.9263C18.0448 29.9263 5.96977 28.3963 1.82977 25.4488Z" fill="#1E1E1E"/>
<path d="M29.9998 98.9638C22.8523 98.9638 9.3298 97.9438 9.3298 94.0663L5.0998 34.5088C5.0848 34.2613 5.1898 34.0213 5.3848 33.8638C5.5798 33.7063 5.8348 33.6613 6.0748 33.7363C11.3848 35.4088 20.3248 36.4063 29.9998 36.4063C39.6748 36.4063 48.6148 35.4088 53.9248 33.7363C54.1648 33.6613 54.4198 33.7063 54.6148 33.8638C54.8098 34.0213 54.9148 34.2613 54.8998 34.5088L50.6698 94.1263C50.6698 97.9438 37.1473 98.9713 29.9998 98.9713V98.9638ZM6.6748 35.4763L10.8298 94.0138C10.8298 95.2213 17.6023 97.4638 30.0073 97.4638C42.4123 97.4638 49.1773 95.2213 49.1773 94.0663L53.3323 35.4763C47.8048 37.0063 39.2173 37.9063 30.0073 37.9063C20.7973 37.9063 12.2023 37.0063 6.6823 35.4763H6.6748Z" fill="#1E1E1E"/>
<path d="M37.2373 16.5838C37.2373 16.7263 37.2373 16.8688 37.1848 17.0263C37.1773 17.0488 37.1698 17.0713 37.1623 17.0938C37.1623 17.1388 37.1623 17.1838 37.1623 17.2288C37.0948 17.5813 36.9373 17.8288 36.6823 18.0463C50.9998 18.7213 58.1773 21.5113 58.1773 23.1613C58.1773 25.0513 48.7648 28.4263 30.0073 28.4263C11.2498 28.4263 1.82977 25.0513 1.82977 23.1613C1.82977 21.2713 10.6273 18.1213 28.1473 17.9038C28.3048 17.3788 28.5073 16.8838 28.7848 16.4038C14.4523 16.5238 0.329773 18.8338 0.329773 23.1613C0.329773 27.4888 15.2548 29.9263 29.9998 29.9263C44.7448 29.9263 59.6698 27.6013 59.6698 23.1613C59.6698 19.4488 49.2598 17.2213 37.2448 16.5838H37.2373Z" fill="#1E1E1E"/>
<path d="M32.4748 34.6888C24.4798 34.6888 14.1748 33.5563 0.914752 30.5263C0.509752 30.4363 0.262252 30.0313 0.352252 29.6263C0.442252 29.2213 0.847252 28.9663 1.25225 29.0638C51.3073 40.5088 58.1623 24.3238 58.2223 24.1588C58.3723 23.7763 58.7998 23.5813 59.1898 23.7238C59.5723 23.8663 59.7747 24.2938 59.6322 24.6838C59.4372 25.2238 55.5898 34.6963 32.4823 34.6963L32.4748 34.6888Z" fill="#1E1E1E"/>
</g>
<defs>
<clipPath id="clip0_131_1030">
<rect width="60" height="99" fill="white"/>
</clipPath>
</defs>
</svg>
