<svg width="24" height="24" viewBox="0 0 24 24" fill="none" xmlns="http://www.w3.org/2000/svg">
<path d="M21.7076 10.1744L13.1419 10.174C12.7636 10.174 12.457 10.4805 12.457 10.8587V13.5951C12.457 13.9733 12.7636 14.2799 13.1418 14.2799H17.9655C17.4373 15.6507 16.4515 16.7987 15.1937 17.5281L17.2505 21.0886C20.5499 19.1804 22.5005 15.8324 22.5005 12.0845C22.5005 11.5508 22.4611 11.1693 22.3825 10.7398C22.3227 10.4134 22.0393 10.1744 21.7076 10.1744Z" fill="#167EE6"/>
<path d="M12.0007 18.3912C9.6401 18.3912 7.57931 17.1014 6.47251 15.1929L2.91211 17.245C4.72397 20.3853 8.11818 22.4999 12.0007 22.4999C13.9053 22.4999 15.7025 21.9871 17.2507 21.0934V21.0885L15.1939 17.528C14.2531 18.0736 13.1644 18.3912 12.0007 18.3912Z" fill="#12B347"/>
<path d="M17.25 21.0935V21.0886L15.1932 17.5281C14.2524 18.0737 13.1637 18.3913 12 18.3913V22.5C13.9046 22.5 15.7019 21.9872 17.25 21.0935Z" fill="#0F993E"/>
<path d="M5.60869 12C5.60869 10.8364 5.92624 9.74783 6.47178 8.80706L2.91139 6.75488C2.01278 8.29818 1.5 10.0905 1.5 12C1.5 13.9095 2.01278 15.7018 2.91139 17.2451L6.47178 15.1929C5.92624 14.2522 5.60869 13.1636 5.60869 12Z" fill="#FFD500"/>
<path d="M12.0007 5.60869C13.5401 5.60869 14.954 6.15568 16.0585 7.06553C16.3309 7.28996 16.7269 7.27376 16.9765 7.02418L18.9153 5.08538C19.1985 4.8022 19.1783 4.33869 18.8758 4.07627C17.0254 2.47096 14.6178 1.5 12.0007 1.5C8.11817 1.5 4.72397 3.61464 2.91211 6.75487L6.47251 8.80705C7.57931 6.89847 9.6401 5.60869 12.0007 5.60869Z" fill="#FF4B26"/>
<path d="M16.0578 7.06553C16.3302 7.28996 16.7263 7.27376 16.9758 7.02418L18.9146 5.08538C19.1977 4.8022 19.1776 4.33869 18.8751 4.07627C17.0247 2.47092 14.6171 1.5 12 1.5V5.60869C13.5393 5.60869 14.9533 6.15568 16.0578 7.06553Z" fill="#D93F21"/>
</svg>
