<svg width="172" height="134" viewBox="0 0 172 134" fill="none" xmlns="http://www.w3.org/2000/svg">
<path d="M86.6052 37.1758C86.3657 34.8805 84.8991 32.89 82.7781 31.9818L67.0031 25.2219L64.4489 25.5436C63.8945 26.8374 64.4936 28.3353 65.7871 28.8896L81.5634 35.6493C81.9871 35.8309 82.2801 36.229 82.328 36.6875L84.6436 58.9276H88.5737L86.6052 37.1758Z" fill="#CAF3FF"/>
<path d="M89.7686 58.9284L87.3979 36.1593C87.1585 33.864 85.692 31.8735 83.5709 30.9654L67.7959 24.2056C66.5018 23.6538 65.0042 24.2504 64.4492 25.5436L82.5674 33.3073C83.8403 33.8521 84.7201 35.0458 84.8632 36.4231L87.2062 58.9282L89.7653 58.9288L89.7686 58.9284Z" fill="#B0EEFF"/>
<path d="M102.227 41.8347H87.9879L85.4565 43.0081L82.8634 41.8347H66.8729C66.1378 41.8347 65.5553 42.4547 65.6012 43.1881L66.3801 55.6471L67.8625 57.6331H104.458L102.227 41.8347Z" fill="#DFF4FA"/>
<path d="M84.6439 58.9274L89.7684 58.9287L87.9886 41.8347H82.8643L84.6439 58.9274Z" fill="#CBEFF9"/>
<path d="M107.483 41.8347H102.227L101.277 57.0301L106.318 58.0855L107.976 55.6471L108.755 43.1881C108.801 42.4549 108.218 41.8347 107.483 41.8347Z" fill="#CBEFF9"/>
<path d="M101.44 54.8471C100.206 54.0981 99.0357 53.3103 96.5733 53.3103C91.8862 53.3103 91.8862 56.1712 87.199 56.1712C82.5159 56.1712 82.5159 53.3103 77.8328 53.3103C73.1473 53.3103 73.1473 56.1712 68.4616 56.1712C67.6651 56.1712 67.0129 56.083 66.4414 55.9457L69.1729 105.075C69.1954 105.481 69.2673 105.871 69.3824 106.238L72.0384 107.612H100.41L103.164 59.1916L101.44 54.8471Z" fill="#FFC263"/>
<path d="M81.5827 70.1657L78.2993 67.971C77.1292 67.1889 76.8149 65.6066 77.5971 64.4368L79.7922 61.154C80.5745 59.9842 82.1571 59.67 83.3272 60.4519L86.6106 62.6467C87.7806 63.4288 88.095 65.0111 87.3128 66.1809L85.1176 69.4636C84.3354 70.6336 82.7527 70.9478 81.5827 70.1657Z" fill="#FFDA78"/>
<path d="M93.4566 63.2355L91.6546 61.4338C90.6594 60.4388 90.6594 58.8256 91.6546 57.8306L93.4566 56.029C94.4519 55.034 96.0653 55.034 97.0606 56.029L98.8626 57.8306C99.8578 58.8256 99.8578 60.4388 98.8626 61.4338L97.0606 63.2355C96.0653 64.2305 94.4519 64.2305 93.4566 63.2355Z" fill="#FFDA78"/>
<path d="M105.218 104.973L107.947 55.7983C107.374 55.9363 106.719 56.024 105.92 56.024C103.693 56.024 102.525 55.3773 101.409 54.6987L98.7774 102.109C98.6517 104.373 96.9843 106.136 94.9698 106.136H69.373C69.9009 107.809 71.3213 109 72.9712 109H101.41C103.425 109 105.092 107.236 105.218 104.973Z" fill="#FFA95B"/>
<path d="M92.4937 75.6722L91.5599 74.7386C90.5647 73.7436 90.5647 72.1304 91.5599 71.1354L92.4937 70.2018C93.4889 69.2068 95.1024 69.2068 96.0976 70.2018L97.0314 71.1354C98.0266 72.1304 98.0266 73.7436 97.0314 74.7386L96.0976 75.6722C95.1024 76.6672 93.4889 76.6672 92.4937 75.6722Z" fill="#FFDA78"/>
<rect x="63" y="41" width="47" height="2" rx="1" fill="#CBEFF9"/>
</svg>
