<svg width="390" height="216" viewBox="0 0 390 216" fill="none" xmlns="http://www.w3.org/2000/svg">
<path fill-rule="evenodd" clip-rule="evenodd" d="M390 0H0V183H390V0ZM390 183V215.459C379.258 214.646 369.029 212.574 359.556 210.655C358.924 210.527 358.295 210.4 357.669 210.274C345.791 207.875 332.597 205.581 318.734 205.94C306.364 206.261 295.948 208.602 285.527 210.945C275.197 213.267 264.861 215.59 252.61 215.948C236.348 216.422 222.233 213.375 208.017 210.305C194.806 207.452 181.508 204.581 166.318 204.5C150.791 204.416 137.118 207.267 123.567 210.092C108.713 213.189 94.006 216.255 77.1645 215.393C65.5931 214.801 55.6936 212.41 45.9084 210.046C34.4156 207.27 23.0804 204.532 9.37925 204.792C6.10703 204.853 2.9973 205.089 0.000115576 205.445V183H390Z" fill="url(#paint0_linear_146_1953)"/>
<defs>
<linearGradient id="paint0_linear_146_1953" x1="195" y1="3" x2="195" y2="192" gradientUnits="userSpaceOnUse">
<stop stop-color="#EBBC6C"/>
<stop offset="1" stop-color="#F0D068"/>
</linearGradient>
</defs>
</svg>
