<svg width="390" height="215" viewBox="0 0 390 215" fill="none" xmlns="http://www.w3.org/2000/svg">
<path fill-rule="evenodd" clip-rule="evenodd" d="M390 0H0V183H0.00012207V204.445C2.99731 204.089 6.10703 203.853 9.37924 203.792C23.0804 203.532 34.4156 206.27 45.9084 209.046C55.6936 211.41 65.5931 213.801 77.1645 214.393C94.006 215.255 108.713 212.189 123.567 209.092C137.118 206.267 150.791 203.416 166.318 203.5C181.508 203.581 194.806 206.452 208.017 209.305C222.233 212.375 236.348 215.422 252.61 214.948C264.861 214.59 275.197 212.267 285.527 209.945C295.948 207.602 306.364 205.261 318.734 204.94C332.597 204.581 345.791 206.875 357.669 209.274C358.295 209.4 358.924 209.527 359.556 209.655C369.03 211.574 379.258 213.646 390 214.459V183V182V0Z" fill="url(#paint0_linear_135_3492)"/>
<defs>
<linearGradient id="paint0_linear_135_3492" x1="195" y1="3" x2="195" y2="192" gradientUnits="userSpaceOnUse">
<stop stop-color="#EBBC6C"/>
<stop offset="1" stop-color="#F0D068"/>
</linearGradient>
</defs>
</svg>
