<svg width="1920" height="364" viewBox="0 0 1920 364" fill="none" xmlns="http://www.w3.org/2000/svg">
<path fill-rule="evenodd" clip-rule="evenodd" d="M1920 0H0V184L3.40736e-05 306.438C14.7554 304.496 30.0649 303.21 46.1742 302.874C113.626 301.455 169.43 316.392 226.01 331.537C274.184 344.431 322.92 357.476 379.886 360.706C462.798 365.408 535.203 348.682 608.331 331.788C675.042 316.377 742.355 300.827 818.794 301.28C893.577 301.724 959.045 317.388 1024.08 332.949C1094.07 349.694 1163.56 366.32 1243.62 363.733C1303.93 361.782 1354.82 349.108 1405.67 336.44C1456.98 323.661 1508.25 310.888 1569.15 309.14C1637.4 307.181 1702.35 319.696 1760.83 332.778C1763.91 333.467 1767.01 334.162 1770.12 334.861C1816.76 345.328 1867.12 356.629 1920 361.065L1920 184V0Z" fill="url(#paint0_linear_228_4479)"/>
<defs>
<linearGradient id="paint0_linear_228_4479" x1="960" y1="38" x2="960" y2="364" gradientUnits="userSpaceOnUse">
<stop stop-color="#EBBC6C"/>
<stop offset="1" stop-color="#F0D068"/>
</linearGradient>
</defs>
</svg>
