<svg width="1920" height="1786" viewBox="0 0 1920 1786" fill="none" xmlns="http://www.w3.org/2000/svg">
<path fill-rule="evenodd" clip-rule="evenodd" d="M1920 57.5624C1905.24 59.5037 1889.94 60.79 1873.83 61.1264C1806.37 62.5446 1750.57 47.6077 1693.99 32.4631C1645.82 19.5687 1597.08 6.52361 1540.11 3.29449C1457.2 -1.40807 1384.8 15.3183 1311.67 32.2116C1244.96 47.6227 1177.65 63.1728 1101.21 62.7196C1026.42 62.2762 960.955 46.6122 895.917 31.0511C825.93 14.306 756.441 -2.31996 676.38 0.267477C616.068 2.21788 565.185 14.8923 514.329 27.56C463.024 40.3393 411.748 53.1116 350.848 54.8599C282.601 56.8189 217.647 44.3038 159.167 31.2221C156.087 30.5332 152.991 29.8382 149.878 29.1395C103.24 18.6723 52.8845 7.37074 0.00026395 2.93456V180V1606H0V1728.44C14.7554 1726.5 30.0648 1725.21 46.1742 1724.87C113.626 1723.46 169.43 1738.39 226.01 1753.54C274.183 1766.43 322.919 1779.48 379.886 1782.71C462.798 1787.41 535.203 1770.68 608.331 1753.79C675.042 1738.38 742.355 1722.83 818.794 1723.28C893.577 1723.72 959.045 1739.39 1024.08 1754.95C1094.07 1771.69 1163.56 1788.32 1243.62 1785.73C1303.93 1783.78 1354.82 1771.11 1405.67 1758.44C1456.98 1745.66 1508.25 1732.89 1569.15 1731.14C1637.4 1729.18 1702.35 1741.7 1760.83 1754.78C1763.91 1755.47 1767.01 1756.16 1770.12 1756.86C1816.76 1767.33 1867.11 1778.63 1920 1783.07L1920 1606L1920 180V57.5624Z" fill="url(#paint0_linear_71_64)"/>
<defs>
<linearGradient id="paint0_linear_71_64" x1="960" y1="0" x2="960" y2="1786" gradientUnits="userSpaceOnUse">
<stop stop-color="#EBBC6C"/>
<stop offset="1" stop-color="#F0D068"/>
</linearGradient>
</defs>
</svg>
