<svg width="79" height="85" viewBox="0 0 79 85" fill="none" xmlns="http://www.w3.org/2000/svg">
<path d="M39.6052 13.1758C39.3657 10.8805 37.8991 8.88997 35.7781 7.98181L20.0031 1.22192L17.4489 1.54357C16.8945 2.83739 17.4936 4.3353 18.7871 4.88957L34.5634 11.6493C34.9871 11.8309 35.2801 12.229 35.328 12.6875L37.6436 34.9276H41.5737L39.6052 13.1758Z" fill="#CAF3FF"/>
<path d="M42.7686 34.9284L40.3979 12.1593C40.1585 9.864 38.692 7.87352 36.5709 6.96536L20.7959 0.205622C19.5018 -0.346184 18.0042 0.250358 17.4492 1.54356L35.5674 9.30726C36.8403 9.85212 37.7201 11.0458 37.8632 12.4231L40.2062 34.9282L42.7653 34.9288L42.7686 34.9284Z" fill="#B0EEFF"/>
<path d="M55.2271 17.8347H40.9879L38.4565 19.0081L35.8634 17.8347H19.8729C19.1378 17.8347 18.5553 18.4547 18.6012 19.1881L19.3801 31.6471L20.8625 33.6331H57.4581L55.2271 17.8347Z" fill="#DFF4FA"/>
<path d="M37.6439 34.9274L42.7684 34.9287L40.9886 17.8347H35.8643L37.6439 34.9274Z" fill="#CBEFF9"/>
<path d="M60.4832 17.8347H55.2272L54.2773 33.0301L59.3182 34.0855L60.9761 31.6471L61.755 19.1881C61.8007 18.4549 61.2181 17.8347 60.4832 17.8347Z" fill="#CBEFF9"/>
<path d="M54.4401 30.8471C53.2058 30.0981 52.0357 29.3103 49.5733 29.3103C44.8862 29.3103 44.8862 32.1712 40.199 32.1712C35.5159 32.1712 35.5159 29.3103 30.8328 29.3103C26.1473 29.3103 26.1473 32.1712 21.4616 32.1712C20.6651 32.1712 20.0129 32.083 19.4414 31.9457L22.1729 81.0748C22.1954 81.4808 22.2673 81.8711 22.3824 82.2376L25.0384 83.6116H53.4096L56.1641 35.1916L54.4401 30.8471Z" fill="#FFC263"/>
<path d="M34.5827 46.1657L31.2993 43.971C30.1292 43.1889 29.8149 41.6066 30.5971 40.4368L32.7922 37.154C33.5745 35.9842 35.1571 35.67 36.3272 36.4519L39.6106 38.6467C40.7806 39.4288 41.095 41.0111 40.3128 42.1809L38.1176 45.4636C37.3354 46.6336 35.7527 46.9478 34.5827 46.1657Z" fill="#FFDA78"/>
<path d="M46.4566 39.2355L44.6546 37.4338C43.6594 36.4388 43.6594 34.8256 44.6546 33.8306L46.4566 32.029C47.4519 31.034 49.0653 31.034 50.0606 32.029L51.8626 33.8306C52.8578 34.8256 52.8578 36.4388 51.8626 37.4338L50.0606 39.2355C49.0653 40.2305 47.4519 40.2305 46.4566 39.2355Z" fill="#FFDA78"/>
<path d="M58.2176 80.9726L60.9473 31.7983C60.3743 31.9363 59.719 32.024 58.9201 32.024C56.6934 32.024 55.5252 31.3773 54.4091 30.6987L51.7774 78.1091C51.6517 80.3729 49.9843 82.1365 47.9698 82.1365H22.373C22.9009 83.8085 24.3213 85 25.9712 85H54.41C56.4247 85 58.092 83.2364 58.2176 80.9726Z" fill="#FFA95B"/>
<path d="M45.4937 51.6722L44.5599 50.7386C43.5647 49.7436 43.5647 48.1304 44.5599 47.1354L45.4937 46.2018C46.4889 45.2068 48.1024 45.2068 49.0976 46.2018L50.0314 47.1354C51.0266 48.1304 51.0266 49.7436 50.0314 50.7386L49.0976 51.6722C48.1024 52.6672 46.4889 52.6672 45.4937 51.6722Z" fill="#FFDA78"/>
<rect x="16" y="17" width="47" height="2" rx="1" fill="#CBEFF9"/>
</svg>
