<svg width="40" height="40" viewBox="0 0 40 40" fill="none" xmlns="http://www.w3.org/2000/svg">
<path d="M20.0062 12.8212C16.0326 12.8212 12.8274 16.0263 12.8274 20C12.8274 23.9737 16.0326 27.1788 20.0062 27.1788C23.9799 27.1788 27.1851 23.9737 27.1851 20C27.1851 16.0263 23.9799 12.8212 20.0062 12.8212ZM20.0062 24.6672C17.4384 24.6672 15.3391 22.5741 15.3391 20C15.3391 17.4259 17.4321 15.3328 20.0062 15.3328C22.5804 15.3328 24.6734 17.4259 24.6734 20C24.6734 22.5741 22.5741 24.6672 20.0062 24.6672ZM29.1532 12.5275C29.1532 13.4584 28.4034 14.2019 27.4787 14.2019C26.5478 14.2019 25.8043 13.4522 25.8043 12.5275C25.8043 11.6028 26.5541 10.8531 27.4787 10.8531C28.4034 10.8531 29.1532 11.6028 29.1532 12.5275ZM33.9078 14.2269C33.8016 11.9839 33.2893 9.9971 31.6461 8.36015C30.0091 6.7232 28.0223 6.21087 25.7793 6.0984C23.4676 5.9672 16.5387 5.9672 14.2269 6.0984C11.9902 6.20462 10.0033 6.71695 8.36015 8.3539C6.71695 9.99085 6.21087 11.9777 6.0984 14.2207C5.9672 16.5324 5.9672 23.4613 6.0984 25.7731C6.20462 28.0161 6.71695 30.0029 8.36015 31.6399C10.0033 33.2768 11.9839 33.7891 14.2269 33.9016C16.5387 34.0328 23.4676 34.0328 25.7793 33.9016C28.0223 33.7954 30.0091 33.2831 31.6461 31.6399C33.2831 30.0029 33.7954 28.0161 33.9078 25.7731C34.0391 23.4613 34.0391 16.5387 33.9078 14.2269ZM30.9213 28.2535C30.434 29.4781 29.4906 30.4215 28.2597 30.9151C26.4166 31.6461 22.0431 31.4774 20.0062 31.4774C17.9694 31.4774 13.5896 31.6399 11.7528 30.9151C10.5282 30.4278 9.58474 29.4843 9.09115 28.2535C8.36015 26.4104 8.52884 22.0368 8.52884 20C8.52884 17.9632 8.3664 13.5834 9.09115 11.7465C9.57849 10.5219 10.5219 9.57849 11.7528 9.0849C13.5959 8.3539 17.9694 8.52259 20.0062 8.52259C22.0431 8.52259 26.4229 8.36015 28.2597 9.0849C29.4843 9.57224 30.4278 10.5157 30.9213 11.7465C31.6523 13.5896 31.4837 17.9632 31.4837 20C31.4837 22.0368 31.6523 26.4166 30.9213 28.2535Z" fill="#1E1E1E"/>
</svg>
