<svg width="40" height="40" viewBox="0 0 40 40" fill="none" xmlns="http://www.w3.org/2000/svg">
<path d="M31.8569 13.7745C31.5842 12.748 30.781 11.9396 29.7612 11.6653C27.9127 11.1667 20.5003 11.1667 20.5003 11.1667C20.5003 11.1667 13.088 11.1667 11.2394 11.6653C10.2196 11.9397 9.41636 12.748 9.14375 13.7745C8.64844 15.6351 8.64844 19.5169 8.64844 19.5169C8.64844 19.5169 8.64844 23.3988 9.14375 25.2593C9.41636 26.2858 10.2196 27.0605 11.2394 27.3349C13.088 27.8334 20.5003 27.8334 20.5003 27.8334C20.5003 27.8334 27.9126 27.8334 29.7612 27.3349C30.781 27.0605 31.5842 26.2858 31.8569 25.2593C32.3522 23.3988 32.3522 19.5169 32.3522 19.5169C32.3522 19.5169 32.3522 15.6351 31.8569 13.7745ZM18.076 23.0414V15.9925L24.2713 19.517L18.076 23.0414Z" fill="#1E1E1E"/>
</svg>
