<svg width="213" height="134" viewBox="0 0 213 134" fill="none" xmlns="http://www.w3.org/2000/svg">
<g clip-path="url(#clip0_623_1000)">
<path d="M106.5 56.1177L90.3229 54.6667L75.6172 56.1177V63.1586L93.2642 99.6471L100.323 101.098L106.5 99.6471L107.97 72.3687L106.5 56.1177Z" fill="#FBF4F4"/>
<path d="M84.4414 30V38.7059L96.2796 40.1569L106.5 38.7059L107.971 34.3529L106.5 30H84.4414Z" fill="#5A5F64"/>
<path d="M128.559 30H106.5V38.7059L116.426 40.1569L128.559 38.7059V30Z" fill="#4B5055"/>
<path d="M137.382 99.6471V95.2942L135.912 93.1177L137.382 90.9413V56.1177L122.48 54.6667L106.5 56.1177V99.6471L121.941 101.098L137.382 99.6471Z" fill="#E9E4F0"/>
<path d="M121.941 78.2566V73.5293H126.353V78.2566L124.147 79.7076L121.941 78.2566Z" fill="#4B5055"/>
<path d="M104.294 73.5293V78.2566L105.397 79.5204L106.5 78.2566L107.97 76.3102L106.5 73.5293H104.294Z" fill="#5A5F64"/>
<path d="M106.5 73.5293V78.2566L107.603 78.7528L108.706 78.2566H108.706V73.5293H106.5Z" fill="#4B5055"/>
<path d="M130.765 84.4117C130.765 80.8113 127.796 77.8823 124.147 77.8823C120.498 77.8823 117.529 80.8113 117.529 84.4117V90.9411L124.147 92.3921L130.765 90.9411V84.4117Z" fill="#6AAAF8"/>
<path d="M76.2301 38.7058L71.1396 56.1176H91.0586L92.5292 47.6536L91.0586 38.7058H76.2301Z" fill="#6AAAF8"/>
<path d="M91.0586 38.7058V56.1176H106.5L107.97 46.7828L106.5 38.7058H91.0586Z" fill="#167EE6"/>
<path d="M106.5 38.7058V56.1176H121.941L123.412 47.7019L121.941 38.7058H106.5Z" fill="#6AAAF8"/>
<path d="M136.818 38.7058H121.941V56.1176H141.909L136.818 38.7058Z" fill="#167EE6"/>
<path d="M99.8828 84.4117V90.9411L103.89 92.3921L106.5 90.9411V77.8823C102.851 77.8823 99.8828 80.8113 99.8828 84.4117Z" fill="#6AAAF8"/>
<path d="M106.5 77.8823V90.9411L109.294 92.2108L113.118 90.9411V84.4117C113.118 80.8113 110.149 77.8823 106.5 77.8823Z" fill="#167EE6"/>
<path d="M99.8822 90.9412H93.2645L91.7939 93.1176L93.2645 95.2941H106.5L107.97 93.1176L106.5 90.9412H99.8822Z" fill="#5A5F64"/>
<path d="M137.382 90.9412H130.765H117.529H113.118H106.5V95.2941H137.382V90.9412Z" fill="#4B5055"/>
<path d="M93.2642 63.1584V99.647L84.4407 101.098L75.6172 99.647V63.1584H93.2642Z" fill="#E9E4F0"/>
<path d="M75.6176 99.647H69V104H106.5L107.971 101.823L106.5 99.647H75.6176Z" fill="#167EE6"/>
<path d="M144 99.647H137.382H106.5V104H144V99.647Z" fill="#6AAAF8"/>
</g>
<defs>
<clipPath id="clip0_623_1000">
<rect width="75" height="74" fill="white" transform="translate(69 30)"/>
</clipPath>
</defs>
</svg>
