<svg width="257" height="50" viewBox="0 0 257 50" fill="none" xmlns="http://www.w3.org/2000/svg">
<path d="M99.1477 19.3115H89.7051V29.9345L91.9415 38.1968L95.1719 40.5574L98.1537 34.6558L99.1477 19.3115Z" fill="#ECB356"/>
<path d="M39.2598 21.863C39.2598 22.7862 38.5124 23.9293 37.4133 23.9293C35.0832 23.9293 25.4111 19.5329 20.4872 13.8176C20.2674 13.5538 20.0915 13.4219 19.8277 13.4219C19.6519 13.4219 19.3881 13.5538 19.1683 13.8176C14.6839 19.0493 4.83603 24.281 1.80252 24.281C0.747386 24.281 0 23.2259 0 22.2147C0 21.4234 0.527567 20.7199 1.05513 20.5441C7.38594 18.7416 13.0573 15.4443 16.4865 11.4436C17.1899 10.6522 18.1131 9.77293 19.8277 9.77293C21.4544 9.77293 22.5535 10.6082 23.2129 11.3996C26.5542 15.2245 32.0497 18.5217 38.1167 20.2363C38.7322 20.4122 39.2598 21.0717 39.2598 21.863ZM25.8947 24.7646C25.8947 25.8198 25.1034 26.5671 24.356 26.5671H15.2555C14.5081 26.5671 13.7167 25.8198 13.7167 24.7646C13.7167 23.6655 14.5081 22.9181 15.2555 22.9181H24.356C25.1034 22.9181 25.8947 23.6655 25.8947 24.7646ZM36.49 34.3488C36.49 35.3599 36.0064 36.2392 35.6108 36.8107L26.9499 47.1862C26.6861 47.494 26.2025 47.7138 25.631 47.7138C24.2241 47.7138 23.5207 46.7026 23.5207 45.7794C23.5207 45.3837 23.6526 45.032 23.8724 44.7682L31.3902 35.8435C31.5221 35.6237 31.5661 35.4918 31.5661 35.3599C31.5661 35.1401 31.3902 35.0082 30.9946 35.0082H3.42918C2.6818 35.0082 1.80252 34.2608 1.80252 33.1617C1.80252 32.0626 2.6818 31.3152 3.42918 31.3152H33.3686C35.1272 31.3152 36.49 32.5902 36.49 34.3488Z" fill="#1E1E1E"/>
<path d="M84.1469 12.9383C84.1469 14.0814 83.3116 14.8288 82.5202 14.8288H65.814V25.4241H78.5195C79.223 25.4241 80.0583 26.2154 80.0583 27.3145C80.0583 28.4576 79.223 29.2489 78.5195 29.2489H66.3415C67.8803 36.1952 72.4086 41.5588 79.0031 44.1967C79.6186 44.4605 80.0583 44.988 80.0583 45.8233C80.0583 47.1423 79.0471 47.9776 78.1239 47.9776C77.948 47.9776 77.8161 47.9336 77.6403 47.8896C71.2215 45.3837 66.5613 40.6356 64.0114 34.7884C61.0659 41.6468 54.779 46.6586 47.0414 48.7689C46.9095 48.8129 46.8216 48.8129 46.6897 48.8129C45.8104 48.8129 44.7992 48.0215 44.7992 46.6586C44.7992 45.8233 45.3268 45.1199 46.0302 44.9441C54.1635 42.6579 60.0987 36.9426 61.4176 29.2489H49.0198C48.2724 29.2489 47.4371 28.4576 47.4371 27.3145C47.4371 26.2154 48.2724 25.4241 49.0198 25.4241H61.6814V14.8288H44.9751C44.2277 14.8288 43.3924 14.0814 43.3924 12.9383C43.3924 11.8392 44.2277 11.0039 44.9751 11.0039H82.5202C83.3116 11.0039 84.1469 11.8392 84.1469 12.9383Z" fill="#1E1E1E"/>
<path d="M126.396 42.8338C126.396 46.7905 123.67 49.4284 119.538 49.4284H118.087C117.384 49.4284 116.636 48.725 116.636 47.6259C116.636 46.7026 117.252 45.9992 117.911 45.9992H118.747C120.945 45.9992 122.659 44.6363 122.659 42.526V32.5023C122.659 31.8868 122.22 31.4471 121.604 31.4471H107.712C107.36 32.0187 107.008 32.5462 106.612 33.0738V36.2392L117.955 33.997C118.087 33.9531 118.175 33.9531 118.307 33.9531C119.01 33.9531 119.582 34.4806 119.582 35.272C119.582 36.2392 119.142 36.7668 118.571 36.8987L106.612 39.2727V40.6356C106.612 41.6028 107.272 42.3502 108.283 42.3502H113.823C114.482 42.3502 115.229 43.0096 115.229 43.9768C115.229 44.9441 114.394 45.5596 113.735 45.5596H107.887C105.425 45.5596 103.315 43.845 103.315 41.2071V35.9754C103.183 36.0194 103.051 36.0633 102.92 36.0633C102.084 36.0633 101.205 35.316 101.205 34.2169C101.205 33.6014 101.513 33.2057 101.864 32.9859C104.678 31.1394 106.129 28.1059 106.744 24.8525H105.645C103.931 24.8525 102.48 23.4897 102.48 21.7311V13.7297C102.48 11.9711 103.931 10.6082 105.689 10.6082H121.912C123.67 10.6082 125.121 11.9711 125.121 13.7297V21.7311C125.121 23.4897 123.714 24.8525 121.912 24.8525H110.13C109.91 26.0835 109.646 27.2266 109.206 28.3257H123.143C124.989 28.3257 126.396 29.7765 126.396 31.623V42.8338ZM99.7981 37.9098C99.7981 39.7563 98.3473 41.2071 96.5447 41.2071H92.2802C90.4777 41.2071 89.0269 39.7563 89.0269 37.9098L87.4531 13.8616C87.4531 12.0151 88.9039 10.5643 90.7065 10.5643H98.1185C99.921 10.5643 101.372 12.0151 101.372 13.8616L99.7981 37.9098ZM121.384 16.3236V14.3891C121.384 13.8176 120.945 13.378 120.373 13.378H107.272C106.7 13.378 106.305 13.8176 106.305 14.3891V16.3236H121.384ZM121.384 21.0277V19.0493H106.305V21.0277C106.305 21.6432 106.7 22.0828 107.272 22.0828H120.373C120.945 22.0828 121.384 21.6432 121.384 21.0277ZM96.7645 36.5469L98.3383 15.2245C98.3383 14.6529 97.8987 14.1693 97.3272 14.1693H91.4978C90.8823 14.1693 90.4427 14.6529 90.4427 15.2245L92.0164 36.5469C92.0164 37.1185 92.4561 37.6021 93.0716 37.6021H95.7534C96.3249 37.6021 96.7645 37.1185 96.7645 36.5469Z" fill="#1E1E1E"/>
<path d="M169.613 26.0396C169.613 27.1826 168.733 27.974 167.986 27.974H160.864V48.2853C160.864 49.1206 160.073 49.9999 158.842 49.9999C157.611 49.9999 156.775 49.1206 156.775 48.2853V27.974H149.565C148.774 27.974 147.939 27.1826 147.939 26.0396C147.939 24.9405 148.774 24.1491 149.565 24.1491H156.775V10.96C156.775 10.1246 157.611 9.24536 158.842 9.24536C160.073 9.24536 160.864 10.1246 160.864 10.96V24.1491H167.986C168.733 24.1491 169.613 24.9405 169.613 26.0396ZM144.729 13.9935C144.246 18.5217 142.795 22.3906 140.641 25.468C141.388 25.6879 141.872 26.3034 141.872 26.8749V45.7794C141.872 46.4388 141.124 47.3181 140.025 47.3181C138.926 47.3181 138.223 46.4388 138.223 45.7794V28.2378C137.431 29.0291 134.881 31.0954 133.738 31.0954C132.815 31.0954 131.804 30.4799 131.804 29.2489C131.804 28.5455 132.155 27.8421 132.683 27.5783C136.596 25.6439 139.981 20.7199 140.904 13.9055C140.992 13.1581 141.74 12.3228 142.927 12.3228C143.982 12.3228 144.729 13.1142 144.729 13.8616C144.729 13.9055 144.729 13.9495 144.729 13.9935Z" fill="#1E1E1E"/>
<path d="M215.731 30.6997C215.731 31.4911 215.115 32.0187 214.544 32.0187H213.049C211.422 32.0187 210.807 30.7877 210.807 29.117V24.325C210.807 23.8414 211.247 23.2698 211.994 23.2698C212.653 23.2698 213.093 23.8414 213.093 24.325V28.3697C213.093 29.117 213.313 29.3808 213.796 29.3808H214.764C215.247 29.3808 215.731 29.8644 215.731 30.6997ZM214.5 20.1044C214.5 20.9398 213.884 21.4673 213.313 21.4673H208.785V31.0954C208.785 31.667 208.213 32.3264 207.422 32.3264C206.586 32.3264 206.015 31.667 206.015 31.0954V21.4673H201.838C201.267 21.4673 200.607 20.9398 200.607 20.1044C200.607 19.3131 201.267 18.7855 201.838 18.7855H206.015V17.3347C206.015 16.7632 206.586 16.1037 207.422 16.1037C208.213 16.1037 208.785 16.7632 208.785 17.3347V18.7855H213.313C213.884 18.7855 214.5 19.3131 214.5 20.1044ZM203.773 26.6551C203.773 28.0619 203.465 29.9084 202.805 31.3592C202.674 31.667 202.322 31.9307 201.838 31.9307C201.047 31.9307 200.607 31.3152 200.607 30.7437C200.607 30.6118 200.651 30.436 200.695 30.3041C201.267 29.205 201.399 27.8861 201.399 26.5232V24.325C201.399 23.8414 201.882 23.2698 202.586 23.2698C203.289 23.2698 203.773 23.8414 203.773 24.325V26.6551ZM196.782 29.7765C196.782 30.3041 196.299 30.8756 195.639 30.8756C194.892 30.8756 194.408 30.3041 194.408 29.7765V24.325C194.408 23.8414 194.892 23.2698 195.639 23.2698C196.299 23.2698 196.782 23.8414 196.782 24.325V29.7765ZM197.222 20.1044C197.222 20.9398 196.563 21.4673 195.991 21.4673H191.727V30.7877C191.727 31.3592 191.199 32.0187 190.364 32.0187C189.484 32.0187 188.957 31.3592 188.957 30.7877V21.4673H184.692C184.165 21.4673 183.549 20.9398 183.549 20.1044C183.549 19.3131 184.165 18.7855 184.692 18.7855H188.957V17.3787C188.957 16.7632 189.484 16.1037 190.364 16.1037C191.199 16.1037 191.727 16.7632 191.727 17.3787V18.7855H195.991C196.563 18.7855 197.222 19.3131 197.222 20.1044ZM210.016 13.5978C210.016 14.609 209.268 15.2684 208.565 15.2684H182.45C181.835 15.2684 181.395 15.752 181.395 16.3236V30.4799C181.395 37.1185 180.824 40.4597 179.241 43.3174C179.065 43.7131 178.449 44.0648 177.746 44.0648C176.427 44.0648 175.9 43.2295 175.9 42.4821C175.9 42.2623 175.944 42.0424 176.031 41.8226C177.043 39.7123 177.658 36.8547 177.658 30.1282V15.1805C177.658 13.334 179.065 11.8832 180.955 11.8832H195.068V10.872C195.068 10.1246 195.859 9.28932 197.046 9.28932C198.189 9.28932 198.981 10.1246 198.981 10.872V11.8832H208.565C209.268 11.8832 210.016 12.5866 210.016 13.5978ZM186.407 26.6551C186.407 28.018 186.099 29.8205 185.44 31.3152C185.308 31.623 184.912 31.8868 184.473 31.8868C183.725 31.8868 183.242 31.3592 183.242 30.7437C183.242 30.6118 183.242 30.436 183.329 30.3041C183.857 29.117 184.033 27.8861 184.033 26.5232V24.325C184.033 23.8414 184.517 23.2698 185.176 23.2698C185.923 23.2698 186.407 23.8414 186.407 24.325V26.6551ZM215.027 48.0655C215.027 48.8568 214.456 49.5603 213.489 49.5603C212.522 49.5603 212.038 49.2965 211.818 48.681L211.203 46.8785C207.158 48.5931 202.102 48.9008 193.573 48.9008H182.494C181.923 48.9008 181.175 48.2413 181.175 47.3181C181.175 46.3509 181.923 45.7794 182.494 45.7794H191.199L195.156 42.1304H187.726C186.407 42.1304 185.44 41.0752 185.44 39.8003C185.44 38.921 185.879 38.1297 186.495 37.5581L191.683 32.8979C191.946 32.6781 192.342 32.5462 192.782 32.5462C193.529 32.5462 194.276 33.2936 194.276 34.041C194.276 34.3048 194.145 34.6125 193.881 34.8763L189.748 38.7012C189.572 38.877 189.484 39.0089 189.484 39.1408C189.484 39.3167 189.66 39.4046 189.968 39.4046H198.101L202.454 35.3599C202.718 35.1401 203.157 35.0082 203.597 35.0082C204.432 35.0082 205.048 35.8435 205.048 36.5909C205.048 36.8987 204.96 37.1624 204.74 37.3823L195.859 45.7794C202.937 45.7354 206.586 45.2518 210.103 43.9768L208.829 40.4597C208.785 40.3278 208.741 40.196 208.741 40.0641C208.741 39.3167 209.4 38.6133 210.323 38.6133C211.291 38.6133 211.818 38.921 212.038 39.5805L214.983 47.7138C215.027 47.8457 215.027 47.9336 215.027 48.0655Z" fill="#1E1E1E"/>
<path d="M255.694 21.1596C255.694 26.9189 252.88 29.117 245.846 31.7109C242.725 32.854 241.494 34.3927 241.494 37.7779C241.494 38.7891 240.658 39.4925 239.383 39.4925C237.977 39.4925 237.405 38.5253 237.405 37.646C237.405 33.0298 238.944 30.348 243.428 28.6774C250.286 26.1715 251.693 24.8525 251.693 21.1596C251.693 16.8951 249.187 14.1693 242.681 14.1693H231.91C231.118 14.1693 230.283 13.378 230.283 12.147C230.283 11.0039 231.118 10.1686 231.91 10.1686H242.681C250.682 10.1686 255.694 13.9495 255.694 21.1596ZM242.021 47.1862C242.021 49.0327 241.406 49.6042 239.296 49.6042C237.097 49.6042 236.526 49.0327 236.526 47.1862C236.526 45.3837 237.185 44.6363 239.296 44.6363C241.318 44.6363 242.021 45.3837 242.021 47.1862Z" fill="#1E1E1E"/>
<path d="M96.7864 2L94.9878 5.51317L94.4258 12.2295" stroke="#1E1E1E" stroke-width="4" stroke-linecap="round" stroke-linejoin="round"/>
<rect x="246.904" y="9.8689" width="1.57377" height="6.29509" transform="rotate(20.2934 246.904 9.8689)" fill="white"/>
<rect x="251.674" y="11.6487" width="1.57377" height="6.29509" transform="rotate(35.524 251.674 11.6487)" fill="white"/>
<rect x="255.836" y="15.377" width="1.57377" height="6.29509" transform="rotate(62.9619 255.836 15.377)" fill="white"/>
<rect x="256.715" y="22.2485" width="1.57377" height="6.29509" transform="rotate(102.506 256.715 22.2485)" fill="white"/>
</svg>
